<svg width="36" height="36" viewBox="0 0 36 36" fill="none" xmlns="http://www.w3.org/2000/svg">
<path d="M18.2046 14.2045C18.7988 14.2045 19.365 14.3287 19.8799 14.5522C19.9185 13.7121 20.208 12.9353 20.6725 12.2922C20.3404 12.2227 20.002 12.1876 19.6627 12.1875H16.39C16.0454 12.1875 15.708 12.2235 15.3835 12.2911C15.8963 12.999 16.1745 13.8497 16.1791 14.7238C16.7996 14.3823 17.4964 14.2037 18.2046 14.2045Z" fill="#09BDC1"/>
<path d="M18.0256 11.9243C20.1558 11.9243 21.8826 10.1975 21.8826 8.06738C21.8826 5.93726 20.1558 4.21045 18.0256 4.21045C15.8955 4.21045 14.1687 5.93726 14.1687 8.06738C14.1687 10.1975 15.8955 11.9243 18.0256 11.9243Z" fill="#09BDC1"/>
<path d="M24.0835 18.5055C25.0259 18.5055 25.9297 18.1311 26.5961 17.4647C27.2625 16.7983 27.6369 15.8945 27.6369 14.9521C27.637 14.4854 27.5451 14.0233 27.3666 13.5922C27.188 13.161 26.9263 12.7692 26.5963 12.4392C26.2663 12.1093 25.8746 11.8475 25.4434 11.669C25.0122 11.4904 24.5501 11.3986 24.0835 11.3987C22.1388 11.3987 20.562 12.9608 20.5326 14.8984C21.653 15.601 22.4387 16.7894 22.582 18.1689C23.0516 18.3902 23.5643 18.5052 24.0835 18.5055ZM11.9688 11.3983C10.0054 11.3983 8.41504 12.9891 8.41504 14.9517C8.41504 16.9144 10.0054 18.5048 11.9688 18.5048C12.638 18.5045 13.2933 18.3144 13.8587 17.9565C14.0309 16.8445 14.6225 15.8406 15.5119 15.1513C15.5156 15.0848 15.5219 15.019 15.5219 14.9517C15.5219 12.9891 13.9307 11.3983 11.9688 11.3983ZM26.3915 11.3226C27.5119 12.0252 28.2976 13.2136 28.4405 14.5935C28.9102 14.8147 29.4228 14.9296 29.942 14.9301C30.4086 14.9301 30.8707 14.8382 31.3019 14.6597C31.733 14.4811 32.1248 14.2194 32.4547 13.8894C32.7847 13.5594 33.0464 13.1677 33.225 12.7365C33.4036 12.3054 33.4954 11.8433 33.4954 11.3766C33.4954 10.91 33.4036 10.4479 33.225 10.0168C33.0464 9.58562 32.7847 9.19388 32.4547 8.8639C32.1248 8.53393 31.733 8.27219 31.3019 8.09363C30.8707 7.91507 30.4086 7.82319 29.942 7.82324C27.9977 7.82287 26.4209 9.38534 26.3915 11.3226Z" fill="#09BDC1"/>
<path d="M18.2047 22.1744C20.1673 22.1744 21.7584 20.5834 21.7584 18.6207C21.7584 16.658 20.1673 15.0669 18.2047 15.0669C16.242 15.0669 14.6509 16.658 14.6509 18.6207C14.6509 20.5834 16.242 22.1744 18.2047 22.1744Z" fill="#09BDC1"/>
<path d="M25.5914 18.748H22.5987C22.5682 19.9034 22.0823 20.9998 21.2468 21.7984C23.4766 22.462 25.1085 24.5301 25.1085 26.9731V28.1093C28.063 28.0001 29.7658 27.1638 29.8779 27.1065L30.1153 26.9859H30.1399V23.298C30.1406 20.789 28.0997 18.748 25.5914 18.748Z" fill="#09BDC1"/>
<path d="M31.4496 15.1724H28.4577C28.4273 16.3277 27.9415 17.4241 27.1061 18.2227C29.3359 18.8864 30.9675 20.9541 30.9675 23.397V24.5332C33.9215 24.4244 35.6247 23.5881 35.7368 23.5304L35.9742 23.4102H35.9996V19.7223C35.9996 17.2136 33.9587 15.1724 31.4496 15.1724ZM15.1602 21.7978C14.3294 21.0031 13.8442 19.9138 13.809 18.7647C13.6984 18.7566 13.5885 18.7474 13.4753 18.7474H10.461C7.95192 18.7474 5.91064 20.7887 5.91064 23.2978V26.9861L5.91983 27.043L6.17375 27.1231C8.0945 27.7232 9.8091 27.9988 11.2977 28.0863V26.9725C11.2984 24.5299 12.9296 22.4618 15.1602 21.7978Z" fill="#09BDC1"/>
<path d="M19.712 22.4164H16.6966C14.1875 22.4164 12.1463 24.4585 12.1463 26.9664V30.6547L12.1558 30.7124L12.4094 30.7917C14.8038 31.5395 16.884 31.7894 18.5957 31.7894C21.94 31.7894 23.878 30.8358 23.9978 30.7752L24.2352 30.6547H24.2602V26.9664C24.2613 24.4577 22.2204 22.4164 19.712 22.4164ZM6.05806 15.0432C6.5772 15.0427 7.08986 14.9278 7.55953 14.7066C7.70284 13.3268 8.48812 12.138 9.60853 11.4354C9.57913 9.4985 8.00233 7.93604 6.05806 7.93604C5.59136 7.93599 5.12922 8.02787 4.69803 8.20645C4.26685 8.38503 3.87506 8.6468 3.54506 8.9768C3.21505 9.30681 2.95328 9.6986 2.7747 10.1298C2.59613 10.561 2.50424 11.0231 2.50429 11.4898C2.50429 11.9565 2.59621 12.4186 2.77481 12.8497C2.95341 13.2809 3.21518 13.6726 3.54519 14.0026C3.87519 14.3325 4.26696 14.5943 4.69812 14.7728C5.12928 14.9514 5.59139 15.0433 6.05806 15.0432ZM8.89344 18.3361C8.05822 17.5371 7.57257 16.4404 7.54226 15.285H4.54998C2.04091 15.2854 0 17.3267 0 19.8353V23.5236H0.0253552L0.262739 23.6438C0.375184 23.7004 2.07766 24.5378 5.03209 24.6462V23.51C5.03209 21.0675 6.66328 18.9994 8.89344 18.3361Z" fill="#09BDC1"/>
<path d="M10.2141 11.0469C10.6403 10.8742 11.2908 10.6622 11.9118 10.6622C12.6346 10.6622 13.3416 10.8481 13.9722 11.202C14.1129 11.0635 14.242 10.9135 14.358 10.7537C13.7577 9.9653 13.4324 9.00185 13.432 8.01092C13.432 7.34287 13.5812 6.67996 13.8656 6.07768C13.2221 5.49338 12.3834 5.17081 11.5142 5.17335C10.7406 5.17409 9.98885 5.4296 9.37506 5.90039C8.76127 6.37118 8.31963 7.03103 8.11841 7.77795C9.31194 8.47246 10.0895 9.68657 10.2141 11.0469ZM21.7235 10.5527C21.8486 10.751 21.9933 10.9362 22.1553 11.1057C22.7362 10.815 23.3768 10.663 24.0264 10.6618C24.6618 10.6618 25.2707 10.8243 25.6697 10.9602C25.7326 10.2334 25.9821 9.53524 26.3942 8.93328C26.8062 8.33131 27.3668 7.846 28.0215 7.5244C27.7806 6.83729 27.3323 6.24194 26.7385 5.82054C26.1447 5.39914 25.4347 5.17249 24.7066 5.17188C24.2287 5.17159 23.7559 5.26897 23.317 5.45803C22.8782 5.6471 22.4826 5.92386 22.1545 6.27134C22.3875 6.82695 22.5055 7.41085 22.5055 8.00945C22.5075 8.9167 22.2349 9.80332 21.7235 10.5527Z" fill="#09BDC1"/>
</svg>
