<svg width="36" height="36" viewBox="0 0 36 36" fill="none" xmlns="http://www.w3.org/2000/svg">
<path d="M5.41456 26.702C6.6462 26.249 7.95615 26.0474 9.26701 26.1092C10.5779 26.1711 11.863 26.495 13.0466 27.062C13.1173 27.0963 13.1946 27.1151 13.2732 27.117C13.3517 27.1189 13.4298 27.104 13.5022 27.0732C13.5757 27.0442 13.642 26.9995 13.6964 26.9422C13.7509 26.8848 13.7921 26.8163 13.8172 26.7413C14.5008 24.8337 14.9742 22.8572 15.2291 20.8469C15.8342 15.7282 15.0775 10.5404 13.0353 5.80791C12.9826 5.69249 12.8927 5.59812 12.7799 5.53997C12.6671 5.48183 12.5381 5.46327 12.4135 5.48727C12.2889 5.51128 12.176 5.57647 12.0929 5.67237C12.0098 5.76826 11.9613 5.8893 11.9553 6.01604C11.809 13.2279 9.28864 20.1902 4.78456 25.8245C4.71118 25.9207 4.67063 26.0379 4.66888 26.1588C4.66712 26.2798 4.70426 26.3981 4.77481 26.4964C4.84536 26.5946 4.94561 26.6677 5.06078 26.7047C5.17595 26.7417 5.29996 26.7407 5.41456 26.702ZM32.9619 28.1532C32.9068 28.0883 32.8376 28.0369 32.7596 28.0028C32.6816 27.9687 32.5969 27.9528 32.5119 27.9563L3.44581 29.1027C3.35219 29.1072 3.26111 29.1347 3.18065 29.1828C3.1002 29.2308 3.03284 29.298 2.98456 29.3783C2.93552 29.4591 2.90774 29.551 2.90381 29.6454C2.89987 29.7399 2.91991 29.8338 2.96206 29.9183L4.72268 33.439C4.77001 33.5325 4.84244 33.611 4.93186 33.6656C5.02127 33.7203 5.12414 33.7489 5.22893 33.7484H27.0674C28.3335 33.7041 29.5583 33.2873 30.5887 32.5503C31.8739 31.5943 32.7626 30.1991 33.0856 28.6302C33.1022 28.5463 33.0997 28.4598 33.0782 28.3771C33.0568 28.2943 33.017 28.2174 32.9619 28.1521V28.1532Z" fill="#09BDC1"/>
<path d="M16.3873 11.4098C17.5874 16.4223 17.3 21.6759 15.5605 26.5275C15.526 26.6334 15.5235 26.7471 15.5531 26.8544C15.5828 26.9617 15.6434 27.0579 15.7273 27.1311C15.8112 27.2042 15.9148 27.2511 16.0252 27.2658C16.1356 27.2805 16.2478 27.2624 16.348 27.2138C19.0888 25.8201 22.1046 25.0517 25.1781 24.9638C27.1382 24.9062 29.0965 25.1298 30.9932 25.6275C31.0811 25.6494 31.173 25.65 31.2611 25.6292C31.3492 25.6083 31.4311 25.5667 31.4999 25.5078C31.5687 25.449 31.6225 25.3745 31.6566 25.2906C31.6908 25.2067 31.7044 25.1159 31.6963 25.0257C30.7288 14.1019 22.3915 5.08842 13.333 2.28155C13.2218 2.24722 13.1028 2.24798 12.9921 2.28372C12.8814 2.31945 12.7844 2.38843 12.7144 2.48126C12.6443 2.5741 12.6045 2.68627 12.6004 2.80252C12.5964 2.91877 12.6283 3.03344 12.6917 3.13092C14.4036 5.65025 15.6548 8.45332 16.3873 11.4098Z" fill="#09BDC1"/>
</svg>
