<svg width="36" height="36" viewBox="0 0 36 36" fill="none" xmlns="http://www.w3.org/2000/svg">
<path d="M33.9751 4.11753C33.9056 4.07113 33.8234 4.04732 33.7399 4.04933C33.6563 4.05134 33.5754 4.07909 33.5082 4.12878L31.1176 5.7994C29.3907 4.7419 19.0632 -0.9956 9.03946 6.5644C4.37071 10.0913 1.81133 15.12 1.82821 20.7225C1.84508 25.8075 4.01071 30.8307 7.22258 33.2213C7.58258 33.4952 8.08096 33.0469 7.83571 32.6588C7.76821 32.5463 0.990084 21.3075 7.94821 13.8319C14.4226 6.87378 21.8701 9.86628 23.9907 10.9407L21.5213 12.6619C21.1889 12.8723 21.361 13.4432 21.7632 13.4269H32.3044C32.5126 13.4269 32.6869 13.2807 32.7207 13.0782L34.1663 4.54503C34.1945 4.37628 34.1213 4.20753 33.9751 4.11753Z" fill="#09BDC1"/>
<path d="M19.0631 27.2758H14.9456L18.7594 23.1752C20.0306 21.814 20.4469 19.8621 19.8169 18.2083C19.4344 17.085 18.2222 15.7024 15.795 15.7446C10.7606 15.7446 10.3669 20.6383 10.3613 20.689C10.3584 20.7465 10.3671 20.804 10.3869 20.858C10.4068 20.912 10.4373 20.9615 10.4766 21.0035C10.516 21.0455 10.5635 21.0792 10.6161 21.1024C10.6688 21.1257 10.7256 21.1381 10.7831 21.139H13.5788C13.7756 21.139 13.95 20.9983 13.9894 20.8015C13.995 20.7846 14.3775 19.069 15.5363 18.9902C16.9504 19.0594 16.4059 21.2458 15.2156 22.3258C13.4061 24.1607 9.29251 27.5908 9.33188 27.889L9.10126 30.1727C9.09001 30.2908 9.12938 30.409 9.20813 30.499C9.28688 30.5833 9.39938 30.634 9.52313 30.634H18.6638C18.8719 30.634 19.0519 30.4877 19.08 30.2796L19.4794 27.7652C19.5306 27.5172 19.3163 27.268 19.0631 27.2758Z" fill="#09BDC1"/>
<path d="M30.0093 15.345C29.97 15.2984 29.9209 15.2612 29.8655 15.2359C29.81 15.2106 29.7496 15.1979 29.6887 15.1988H26.4937C26.3643 15.1988 26.2406 15.255 26.1618 15.3619L19.3781 24.2213C19.3218 24.2944 19.2881 24.3844 19.2881 24.48V26.4263C19.2881 26.6569 19.4793 26.8482 19.71 26.8482L24.2212 26.8594L23.7825 30.1613C23.7751 30.2208 23.7805 30.2812 23.7984 30.3385C23.8163 30.3958 23.8462 30.4485 23.8862 30.4933C23.9261 30.538 23.9752 30.5737 24.03 30.5979C24.0849 30.6222 24.1443 30.6344 24.2043 30.6338H27.3937C27.6131 30.6338 27.7931 30.4707 27.8156 30.2513L28.1137 26.8482H29.2218C29.4243 26.8482 29.5987 26.7075 29.6381 26.5107L30.105 24.1932C30.1567 23.9406 29.9452 23.6802 29.6887 23.6869H28.7268L30.105 15.6881C30.116 15.6274 30.1131 15.565 30.0965 15.5056C30.08 15.4462 30.0502 15.3913 30.0093 15.345ZM25.785 20.1319L25.1718 23.9513H22.9331L25.785 20.1319Z" fill="#09BDC1"/>
</svg>
