<svg width="34" height="33" viewBox="0 0 34 33" fill="none" xmlns="http://www.w3.org/2000/svg">
<path d="M19.5553 23.2999C19.4653 23.8537 19.32 24.3972 19.1216 24.9221L20.8828 26.5179C20.6392 27.0362 20.354 27.534 20.0301 28.0063L17.7688 27.2773C17.4121 27.7131 17.0128 28.1122 16.5769 28.4687L17.3059 30.7299C16.8334 31.0537 16.3357 31.3388 15.8175 31.5827L14.2217 29.8215C13.7031 30.0178 13.1614 30.1635 12.5994 30.2552L12.0971 32.5817C11.8131 32.6042 11.5279 32.625 11.2376 32.625C10.9474 32.625 10.6622 32.6042 10.3776 32.5817L9.87525 30.2552C9.32137 30.1651 8.77791 30.0199 8.253 29.8215L6.65718 31.5827C6.13887 31.339 5.64113 31.0539 5.16881 30.7299L5.89781 28.4687C5.46215 28.1121 5.06306 27.713 4.70644 27.2773L2.44519 28.0063C2.12147 27.5339 1.8363 27.0361 1.59244 26.5179L3.35362 24.9221C3.15519 24.3972 3.0099 23.8538 2.91994 23.2999L0.593437 22.7976C0.570937 22.5129 0.550125 22.2278 0.550125 21.9375C0.550125 21.6472 0.570937 21.3621 0.593437 21.0774L2.91994 20.5751C3.00997 20.0213 3.15526 19.4778 3.35362 18.9529L1.59244 17.3571C1.83937 16.8373 2.12062 16.3378 2.44519 15.8687L4.70644 16.5977C5.06311 16.1619 5.4624 15.7628 5.89837 15.4063L5.16937 13.1451C5.64182 12.8213 6.13955 12.5362 6.65775 12.2923L8.25356 14.0535C8.77845 13.8551 9.32192 13.7098 9.87581 13.6198L10.3781 11.2933C10.6622 11.2708 10.9474 11.25 11.2376 11.25C11.5279 11.25 11.8131 11.2708 12.0977 11.2933L12.6 13.6198C13.1539 13.7099 13.6973 13.8551 14.2222 14.0535L15.8181 12.2923C16.3378 12.5393 16.8373 12.8205 17.3064 13.1451L16.5774 15.4063C17.0132 15.763 17.4123 16.1623 17.7688 16.5982L20.0301 15.8693C20.3538 16.3417 20.6389 16.8394 20.8828 17.3576L19.1216 18.9534C19.3179 19.4721 19.4636 20.0138 19.5553 20.5757L21.8818 21.078C21.9043 21.3621 21.9251 21.6472 21.9251 21.9375C21.9251 22.2278 21.9043 22.5129 21.8818 22.7976L19.5553 23.2999ZM11.2376 16.3125C8.13093 16.3125 5.61262 18.8308 5.61262 21.9375C5.61262 25.0442 8.13093 27.5625 11.2376 27.5625C14.3443 27.5625 16.8626 25.0442 16.8626 21.9375C16.8626 18.8308 14.3443 16.3125 11.2376 16.3125ZM27.3583 7.48406C27.2718 7.77234 27.1567 8.05123 27.0146 8.31656L27.9028 10.0187C27.6033 10.3975 27.2607 10.7401 26.8819 11.0396L25.1797 10.1514C24.9146 10.294 24.6357 10.4091 24.3472 10.4951L23.7712 12.3289C23.5339 12.357 23.2942 12.375 23.0501 12.375C22.806 12.375 22.5664 12.357 22.3296 12.3294L21.7536 10.4957C21.4652 10.4094 21.1863 10.2943 20.9211 10.152L19.2189 11.0402C18.8401 10.7407 18.4975 10.3981 18.198 10.0192L19.0862 8.31712C18.9436 8.05201 18.8285 7.77307 18.7425 7.48462L16.9087 6.90862C16.8806 6.67125 16.8626 6.43162 16.8626 6.1875C16.8626 5.94338 16.8806 5.70375 16.9082 5.46694L18.7419 4.89094C18.8291 4.60012 18.9444 4.32113 19.0856 4.05844L18.1974 2.35631C18.4969 1.9775 18.8396 1.63488 19.2184 1.33538L20.9205 2.22356C21.1856 2.08103 21.4645 1.96587 21.753 1.87987L22.329 0.046125C22.5664 0.018 22.806 0 23.0501 0C23.2942 0 23.5339 0.0180001 23.7707 0.0455626L24.3467 1.87931C24.6375 1.9665 24.9165 2.08181 25.1792 2.223L26.8813 1.33481C27.2601 1.63431 27.6027 1.97694 27.9022 2.35575L27.0141 4.05787C27.1558 4.32056 27.2706 4.59956 27.3577 4.89038L29.1915 5.46638C29.2196 5.70375 29.2376 5.94338 29.2376 6.1875C29.2376 6.43162 29.2196 6.67125 29.192 6.90806L27.3583 7.48406ZM23.0501 3.9375C22.4534 3.9375 21.8811 4.17455 21.4591 4.59651C21.0372 5.01847 20.8001 5.59076 20.8001 6.1875C20.8001 6.78424 21.0372 7.35653 21.4591 7.77849C21.8811 8.20045 22.4534 8.4375 23.0501 8.4375C23.6469 8.4375 24.2191 8.20045 24.6411 7.77849C25.0631 7.35653 25.3001 6.78424 25.3001 6.1875C25.3001 5.59076 25.0631 5.01847 24.6411 4.59651C24.2191 4.17455 23.6469 3.9375 23.0501 3.9375ZM31.9033 20.1774C31.8182 20.486 31.6956 20.783 31.5382 21.0617L32.0979 22.2396C31.8439 22.5639 31.5515 22.8563 31.2272 23.1103L30.0493 22.5506C29.7706 22.7081 29.4736 22.8307 29.1651 22.9157L28.7274 24.1464C28.5255 24.1712 28.3213 24.1875 28.1126 24.1875C27.9039 24.1875 27.6997 24.1712 27.4978 24.1464L27.0602 22.9157C26.7516 22.8306 26.4546 22.708 26.1759 22.5506L24.9981 23.1103C24.6737 22.8563 24.3813 22.5639 24.1273 22.2396L24.687 21.0617C24.5296 20.7832 24.407 20.4864 24.3219 20.178L23.0912 19.7404C23.0664 19.5379 23.0501 19.3337 23.0501 19.125C23.0501 18.9163 23.0664 18.7121 23.0912 18.5102L24.3219 18.0726C24.4069 17.7641 24.5295 17.4674 24.687 17.1889L24.1273 16.011C24.3813 15.6867 24.6737 15.3943 24.9981 15.1403L26.1759 15.6999C26.4546 15.5425 26.7516 15.4199 27.0602 15.3349L27.4978 14.1041C27.6997 14.0788 27.9039 14.0625 28.1126 14.0625C28.3213 14.0625 28.5255 14.0788 28.7274 14.1036L29.1651 15.3343C29.4736 15.4194 29.7706 15.542 30.0493 15.6994L31.2272 15.1397C31.5515 15.3937 31.8439 15.6861 32.0979 16.0104L31.5382 17.1883C31.6946 17.4639 31.8167 17.7604 31.9033 18.0726L33.134 18.5102C33.1588 18.7121 33.1751 18.9163 33.1751 19.125C33.1751 19.3337 33.1588 19.5379 33.134 19.7398L31.9033 20.1774ZM28.1126 17.4375C27.6651 17.4375 27.2358 17.6153 26.9194 17.9318C26.6029 18.2482 26.4251 18.6774 26.4251 19.125C26.4251 19.5726 26.6029 20.0018 26.9194 20.3182C27.2358 20.6347 27.6651 20.8125 28.1126 20.8125C28.5602 20.8125 28.9894 20.6347 29.3059 20.3182C29.6223 20.0018 29.8001 19.5726 29.8001 19.125C29.8001 18.6774 29.6223 18.2482 29.3059 17.9318C28.9894 17.6153 28.5602 17.4375 28.1126 17.4375ZM33.2854 1.13625L29.9211 0.4635L29.2483 3.82725L30.3514 4.04831L30.6546 2.53406C31.2025 3.67407 31.4872 4.92265 31.4876 6.1875C31.495 8.10573 30.8415 9.96798 29.637 11.4609L30.515 12.1646C31.8711 10.4673 32.6106 8.35995 32.6126 6.1875C32.6126 4.71431 32.2723 3.26194 31.6249 1.95131L33.0649 2.23931L33.2854 1.13625ZM12.1978 5.78981L11.4024 6.58519L12.1669 7.34963C11.8576 7.32741 11.5477 7.31503 11.2376 7.3125C9.09274 7.31036 6.97375 7.78098 5.03144 8.69089C3.08912 9.6008 1.37123 10.9276 0 12.5769L0.864 13.2975C2.12974 11.7749 3.71554 10.55 5.50853 9.71C7.30151 8.86999 9.25762 8.43552 11.2376 8.4375C11.5239 8.4375 11.8097 8.45381 12.0954 8.47181L11.4024 9.16481L12.1978 9.96019L14.283 7.875L12.1978 5.78981Z" fill="#09BDC1"/>
</svg>
