<svg width="36" height="36" viewBox="0 0 36 36" fill="none" xmlns="http://www.w3.org/2000/svg">
<path d="M32.2498 10.6289L25.3713 3.75034C24.8046 3.1837 24.0511 2.87158 23.2498 2.87158C22.4484 2.87158 21.6953 3.1837 21.1283 3.75034L3.75003 21.129C2.58039 22.2986 2.58039 24.2019 3.75003 25.3716L10.6286 32.2505C11.1952 32.8171 11.9487 33.1292 12.75 33.1292C13.5514 33.1292 14.3045 32.8171 14.8715 32.2505L32.2502 14.8718C33.4194 13.7018 33.4194 11.7985 32.2498 10.6289ZM31.1892 13.8109L13.8106 31.1895C13.5176 31.4826 13.1338 31.6287 12.75 31.6287C12.3663 31.6287 11.9822 31.4822 11.6895 31.1895L4.81059 24.311C4.52936 24.0297 4.37137 23.6481 4.37137 23.2503C4.37137 22.8525 4.52936 22.4709 4.81059 22.1895L7.71975 19.2804L10.7196 22.2803C10.8662 22.4268 11.058 22.4999 11.2499 22.4999C11.4418 22.4999 11.6337 22.4268 11.7802 22.2803C11.8499 22.2107 11.9052 22.128 11.9429 22.037C11.9806 21.946 12 21.8485 12 21.75C12 21.6515 11.9806 21.554 11.9429 21.463C11.9052 21.372 11.8499 21.2893 11.7802 21.2197L8.78031 18.2198L11.4699 15.5303L15.22 19.2804C15.3665 19.4269 15.5584 19.5 15.7503 19.5C15.9422 19.5 16.134 19.4269 16.2806 19.2804C16.3502 19.2108 16.4055 19.1281 16.4432 19.0371C16.481 18.9461 16.5004 18.8486 16.5004 18.7501C16.5004 18.6516 16.481 18.5541 16.4432 18.4631C16.4055 18.3721 16.3502 18.2894 16.2806 18.2198L12.5301 14.4701L15.2196 11.7805L18.2195 14.7804C18.366 14.9269 18.5579 15 18.7498 15C18.9417 15 19.1336 14.9269 19.2801 14.7804C19.3498 14.7108 19.405 14.6281 19.4428 14.5371C19.4805 14.4461 19.4999 14.3486 19.4999 14.2501C19.4999 14.1516 19.4805 14.0541 19.4428 13.9631C19.405 13.8721 19.3498 13.7894 19.2801 13.7198L16.2802 10.7199L18.9697 8.03038L22.7195 11.7805C22.866 11.927 23.0579 12.0001 23.2498 12.0001C23.4417 12.0001 23.6335 11.927 23.7801 11.7805C23.8498 11.7109 23.905 11.6282 23.9428 11.5372C23.9805 11.4463 23.9999 11.3487 23.9999 11.2502C23.9999 11.1517 23.9805 11.0542 23.9428 10.9632C23.905 10.8722 23.8498 10.7896 23.7801 10.7199L20.0303 6.96982L22.1892 4.8109C22.4823 4.51786 22.866 4.3717 23.2498 4.3717C23.6336 4.3717 24.0177 4.51822 24.3103 4.8109L31.1892 11.6894C31.4705 11.9708 31.6285 12.3523 31.6285 12.7502C31.6285 13.148 31.4705 13.5295 31.1892 13.8109Z" fill="#09BDC1"/>
</svg>
