<svg width="36" height="36" viewBox="0 0 36 36" fill="none" xmlns="http://www.w3.org/2000/svg">
<path d="M10.5867 24.4436L10.5892 24.4443C12.0495 24.8516 13.8597 25.3041 15.7485 25.4992C15.5771 25.446 15.4063 25.3907 15.2363 25.3334C13.3564 24.7615 11.587 24.4119 9.87145 24.2747C10.1102 24.3246 10.3482 24.3798 10.5841 24.4431L10.5867 24.4436ZM17.5681 26.1128C15.2071 26.1128 12.8127 25.5991 10.4509 24.9403C9.39858 24.6581 8.31383 24.5151 7.22435 24.5149C4.7235 24.515 2.242 25.2734 0.199463 26.8057C2.17842 25.9698 4.10634 25.5877 6.04741 25.5877C7.74111 25.5878 9.44492 25.8788 11.1999 26.4133C12.7811 26.9494 14.5383 27.255 16.2928 27.255C17.8505 27.255 19.4056 27.0135 20.8329 26.4787C19.9243 26.406 19.0207 26.2804 18.1267 26.1026C17.9406 26.1093 17.7544 26.1127 17.5681 26.1128ZM4.47307 22.0893C6.20385 21.5342 8.02003 21.2526 9.87177 21.2526C11.4634 21.2526 13.0518 21.4621 14.5928 21.8751L14.5964 21.8761L14.5999 21.8771C17.3055 22.6319 20.8654 23.4982 24.407 23.4982C26.3342 23.4982 28.1193 23.246 29.795 22.7344L35.9999 10.8127C35.9999 10.8127 22.9682 9.4983 0.199463 20.6836V23.946H0.531524C1.74852 23.1628 3.06954 22.5396 4.47307 22.0893ZM19.2039 15.4292C19.7358 15.4292 20.1671 15.8605 20.1671 16.3924C20.1671 16.9244 19.7358 17.3556 19.2039 17.3556C18.672 17.3556 18.2407 16.9244 18.2407 16.3924C18.2407 15.8604 18.672 15.4292 19.2039 15.4292ZM16.1538 16.3924C16.6857 16.3924 17.117 16.8237 17.117 17.3556C17.117 17.8876 16.6857 18.3188 16.1538 18.3188C15.6219 18.3188 15.1906 17.8876 15.1906 17.3556C15.1906 16.8237 15.6219 16.3924 16.1538 16.3924ZM13.2241 17.3556C13.756 17.3556 14.1873 17.7869 14.1873 18.3188C14.1873 18.8508 13.756 19.282 13.2241 19.282C12.6922 19.282 12.2609 18.8508 12.2609 18.3188C12.2609 17.7869 12.6922 17.3556 13.2241 17.3556Z" fill="#09BDC1"/>
<path d="M14.4056 22.574C12.9269 22.1776 11.4027 21.9767 9.87177 21.9763C6.35708 21.9762 2.87032 23.0421 0 25.1955C2.7809 24.0207 5.48996 23.4838 8.21781 23.4839C10.5976 23.484 12.992 23.893 15.458 24.644C17.6801 25.3975 20.1494 25.827 22.6148 25.827C26.6963 25.827 30.7661 24.6492 33.679 21.8137C30.6821 23.5678 27.5655 24.2217 24.4071 24.2217C21.089 24.2217 17.7249 23.5 14.4056 22.574ZM7.7517 10.6682L8.0454 11.6347C8.58503 11.407 10.0705 10.8125 11.7491 10.4193C11.9046 10.383 12.0681 10.4099 12.2037 10.4941C12.3394 10.5782 12.4361 10.7128 12.4726 10.8682C12.5089 11.0236 12.4821 11.1872 12.3979 11.3228C12.3137 11.4585 12.1791 11.5552 12.0236 11.5916C10.294 11.9967 8.74556 12.6437 8.39769 12.7937L9.25051 15.5995C9.25051 15.5995 16.7772 12.0584 25.6156 10.7649L17.0941 8.85967C17.0941 8.85967 10.7427 8.06239 5.08518 10.6746C5.08518 10.6746 6.28749 11.0459 7.7517 10.6682Z" fill="#09BDC1"/>
</svg>
