<svg width="36" height="36" viewBox="0 0 36 36" fill="none" xmlns="http://www.w3.org/2000/svg">
<g clip-path="url(#clip0_120_1009)">
<path d="M11.0407 35.7729C10.3405 35.7729 9.63759 35.5775 9.00507 35.1826C3.12951 31.5159 0.91425 26.7761 0.0905695 23.4457C-1.00851 17.8951 8.17869 16.8842 12.3036 17.1357C12.6207 15.8823 13.407 14.7813 14.4862 14.0719C12.8533 11.8869 10.662 10.5102 7.96035 9.97526C4.47933 9.38396 3.74367 4.37564 6.90663 2.80262C12.9078 -0.617742 24.4017 -1.24882 24.2532 4.7486C24.1303 8.22026 22.9985 11.5582 20.8865 14.6821C21.8202 15.5853 22.3787 16.8076 22.4505 18.1048C25.1583 17.7828 27.4455 16.5733 29.259 14.5019C30.3399 13.2671 32.0285 12.861 33.5614 13.4673C35.0979 14.0751 36.0542 15.5306 35.9977 17.1753C35.7597 24.097 32.7627 28.3853 30.2903 30.7638C26.0349 34.4909 20.5645 27.0414 18.7206 23.3451C17.4937 23.701 16.1003 23.5707 14.973 22.9873C13.8986 25.4929 13.8024 28.0777 14.6897 30.6837C15.6068 33.0849 13.5611 35.8355 11.0407 35.7729ZM10.7491 18.7504C8.20803 18.78 0.98841 19.6562 1.71201 23.0445C2.46171 26.0752 4.48869 30.3952 9.88941 33.7657C10.847 34.3634 11.8125 34.0814 12.3968 33.6181C12.9782 33.1569 13.4705 32.2854 13.1085 31.2219C11.9709 27.8802 12.2314 24.5722 13.8825 21.39C13.9392 21.2806 14.0194 21.1852 14.1173 21.1105C14.2153 21.0359 14.3285 20.9837 14.4489 20.9579C14.5693 20.9321 14.6939 20.9333 14.8138 20.9613C14.9338 20.9893 15.046 21.0435 15.1425 21.12C15.7561 21.6092 16.5183 21.8744 17.3031 21.8718C18.1898 22.0252 19.3479 20.8545 19.9143 21.9521C20.9994 24.6953 26.2341 32.127 29.1321 29.5603C31.3821 27.3958 34.1097 23.4801 34.3284 17.1178C34.3313 15.0253 31.947 14.078 30.5158 15.6019C28.1906 18.2578 25.1959 19.6861 21.6148 19.8475C21.492 19.8528 21.3695 19.8309 21.2561 19.7836C21.1426 19.7362 21.041 19.6645 20.9583 19.5736C20.6307 19.2492 20.7897 18.7886 20.788 18.3868C20.7876 17.8232 20.6505 17.268 20.3887 16.7689C20.1269 16.2697 19.748 15.8415 19.2845 15.5207C19.1931 15.4574 19.1152 15.3764 19.0555 15.2825C18.9958 15.1887 18.9554 15.0839 18.9368 14.9742C18.9181 14.8645 18.9216 14.7522 18.947 14.6439C18.9724 14.5356 19.0191 14.4335 19.0845 14.3435C20.9232 12.0172 24.7306 3.8099 21.0649 2.55584C18.0652 1.6895 13.3105 1.28522 7.69143 4.27718C5.87793 5.32064 6.24945 7.8599 8.28471 8.3369C11.7476 9.02252 14.4818 10.9017 16.4119 13.9223C16.6965 14.3451 16.4943 14.9712 16.0168 15.1481C14.7944 15.6341 13.9363 16.7938 13.8309 18.1024C13.8219 18.2134 13.7909 18.3215 13.7395 18.4204C13.6882 18.5192 13.6176 18.6068 13.5319 18.6779C12.7147 19.1218 11.6331 18.6237 10.7491 18.7504Z" fill="#09BDC1"/>
<path d="M17.3032 20.2015C15.9339 20.3873 14.5285 17.8525 16.3234 17.5515C16.5449 17.5515 16.7574 17.6395 16.914 17.7962C17.0706 17.9528 17.1586 18.1652 17.1586 18.3867C17.1586 18.4652 17.2247 18.5313 17.3032 18.5313C18.3949 18.5358 18.3952 20.1968 17.3032 20.2015ZM1.66206 17.8611C-0.636719 17.7236 2.532 10.5488 3.37728 9.47853C3.96984 8.56413 5.3697 9.45693 4.78308 10.3807C3.49032 12.3949 2.69832 14.7176 2.49312 17.0978C2.47516 17.3059 2.37986 17.4997 2.22601 17.641C2.07217 17.7823 1.87096 17.8609 1.66206 17.8611ZM7.06656 16.1344C5.07666 15.8298 7.31856 12.7295 7.85082 11.7914C8.47956 10.8998 9.84234 11.8497 9.2199 12.7482C8.62309 13.6009 8.16598 14.5433 7.86576 15.5399C7.81404 15.7116 7.7084 15.8622 7.56447 15.9693C7.42054 16.0763 7.24596 16.1342 7.06656 16.1344ZM17.3174 34.919C16.66 34.9626 15.7208 34.8994 15.7562 34.0275C15.7778 33.5669 16.1688 33.2142 16.6296 33.2326C19.0275 33.3443 21.4166 32.8723 23.5918 31.8572C24.58 31.3989 25.2885 32.9027 24.2994 33.3699C22.1223 34.3887 19.7234 34.919 17.3174 34.919ZM17.315 29.9136C16.6121 29.9273 15.4925 29.9487 15.5575 28.9661C15.5768 28.7455 15.6829 28.5416 15.8524 28.3992C16.0218 28.2567 16.2409 28.1874 16.4615 28.2063C17.4984 28.2969 18.5431 28.2215 19.5562 27.9831C19.7718 27.9325 19.9987 27.9695 20.187 28.0861C20.3753 28.2027 20.5096 28.3892 20.5604 28.6048C20.7151 30.1199 18.3068 29.7708 17.315 29.9134V29.9136ZM31.2395 11.9992C31.0861 11.9994 30.9356 11.9573 30.8046 11.8775C30.6735 11.7977 30.567 11.6834 30.4966 11.5471C29.3986 9.42057 27.7831 7.57341 25.8245 6.20541C24.9335 5.57883 25.8814 4.21353 26.7809 4.83615C27.8994 5.39793 34.1951 11.5285 31.2395 11.9992ZM26.985 14.6876C26.8261 14.6876 26.6704 14.6423 26.5363 14.557C26.4022 14.4717 26.2952 14.3499 26.2279 14.2059C25.7878 13.2627 25.2002 12.3956 24.4873 11.6373C23.7342 10.8598 24.9733 9.69201 25.7041 10.4934C26.3728 11.319 29.1457 14.2939 26.985 14.6876Z" fill="#09BDC1"/>
</g>
<defs>
<clipPath id="clip0_120_1009">
<rect width="36" height="36" fill="white"/>
</clipPath>
</defs>
</svg>
