<svg width="36" height="36" viewBox="0 0 36 36" fill="none" xmlns="http://www.w3.org/2000/svg">
<path d="M35.5426 28.6904L25.5828 6.05597V6.05252C25.5173 5.90782 25.3623 5.8458 25.2658 5.8458H23.4261C23.3468 4.36784 22.7474 3.29297 21.9722 3.29297C21.1936 3.29297 20.5976 4.36784 20.5149 5.8458H18.6166C18.5339 4.36784 17.938 3.29297 17.1593 3.29297C16.3842 3.29297 15.7847 4.36784 15.7055 5.8458H13.8072C13.7245 4.36784 13.1251 3.29297 12.3499 3.29297C11.5747 3.29297 10.9753 4.36784 10.896 5.8458H8.99428C8.91503 4.36784 8.31562 3.29297 7.54042 3.29297C6.76185 3.29297 6.16581 4.36784 6.08313 5.8458H4.24368C4.15239 5.84606 4.0649 5.88245 4.00035 5.947C3.93579 6.01156 3.89941 6.09904 3.89915 6.19034V25.8309H0.774463C0.683167 25.8312 0.595685 25.8676 0.531129 25.9321C0.466574 25.9967 0.430191 26.0842 0.429932 26.1755V27.5742C0.429932 28.8558 1.47379 29.8996 2.75193 29.8996H3.89915V32.3629C3.89915 32.5524 4.05419 32.7074 4.24368 32.7074H25.2658C25.4553 32.7074 25.6103 32.5524 25.6103 32.3629V29.1727H35.2256C35.3428 29.1727 35.4496 29.1141 35.515 29.0176C35.577 28.9178 35.5874 28.7972 35.5426 28.6904ZM21.9723 3.98203C22.2513 3.98203 22.6647 4.71237 22.7371 5.8458H21.2074C21.2764 4.71244 21.6898 3.98203 21.9723 3.98203ZM17.1595 3.98203C17.442 3.98203 17.8554 4.71237 17.9277 5.8458H16.3946C16.4669 4.71244 16.8804 3.98203 17.1595 3.98203ZM12.3501 3.98203C12.6326 3.98203 13.0425 4.71237 13.1149 5.8458H11.5852C11.6576 4.71244 12.0676 3.98203 12.3501 3.98203ZM7.54071 3.98203C7.82322 3.98203 8.23314 4.71237 8.30549 5.8458H6.77585C6.8482 4.71244 7.25819 3.98203 7.54071 3.98203ZM24.9213 32.0184H4.58821V29.8997H23.2849C23.9015 29.8997 24.4838 29.6585 24.9213 29.2244V32.0184ZM24.9213 27.5742C24.9213 28.4768 24.191 29.2106 23.2849 29.2106C22.3856 29.2106 21.6519 28.4769 21.6519 27.5742V26.1755C21.6519 25.986 21.4968 25.8309 21.3073 25.8309H4.58821V11.4235H24.9213V27.5742ZM24.9213 10.7345H4.58821V6.53487H6.08341C6.1661 8.01283 6.76206 9.09115 7.54071 9.09115C7.7302 9.09115 7.88524 8.93611 7.88524 8.74661C7.88524 8.55368 7.7302 8.40208 7.54071 8.40208C7.25819 8.40208 6.84475 7.6683 6.77585 6.53487H10.8928C10.9755 8.01283 11.575 9.09115 12.3501 9.09115C12.5396 9.09115 12.6946 8.93611 12.6946 8.74661C12.6946 8.55368 12.5396 8.40208 12.3501 8.40208C12.0676 8.40208 11.6576 7.6683 11.5852 6.53487H15.7056C15.7848 8.01283 16.3843 9.09115 17.1595 9.09115C17.3524 9.09115 17.504 8.93611 17.504 8.74661C17.504 8.55368 17.3524 8.40208 17.1595 8.40208C16.8804 8.40208 16.467 7.6683 16.3947 6.53487H20.515C20.5977 8.01283 21.1938 9.09115 21.9723 9.09115C22.1618 9.09115 22.3169 8.93611 22.3169 8.74661C22.3169 8.55368 22.1618 8.40208 21.9723 8.40208C21.6898 8.40208 21.2764 7.6683 21.2075 6.53487H24.9214V10.7345H24.9213Z" fill="#09BDC1"/>
<path d="M22.3066 13.6938H7.20659C7.1613 13.6937 7.11643 13.7025 7.07456 13.7198C7.03269 13.737 6.99465 13.7624 6.96262 13.7944C6.9306 13.8264 6.90523 13.8645 6.88797 13.9063C6.87071 13.9482 6.8619 13.9931 6.86206 14.0384V23.0818C6.86206 23.2713 7.01366 23.4264 7.20659 23.4264H22.3066C22.4961 23.4264 22.6511 23.2713 22.6511 23.0818V14.0384C22.6511 13.8489 22.4961 13.6938 22.3066 13.6938ZM16.8116 19.8882C16.8116 20.8114 15.8883 21.5625 14.7549 21.5625C13.6214 21.5625 12.6981 20.8115 12.6981 19.8882C12.6981 19.6987 12.8531 19.5436 13.0426 19.5436C13.2355 19.5436 13.3871 19.6987 13.3871 19.8882C13.3871 20.4222 14.0142 20.8735 14.7549 20.8735C15.4955 20.8735 16.1226 20.4221 16.1226 19.8882C16.1226 19.3473 15.5094 18.9063 14.7549 18.9063C14.5654 18.9063 14.4103 18.7513 14.4103 18.5618C14.4103 18.3723 14.5654 18.2173 14.7549 18.2173C15.4955 18.2173 16.1226 17.7659 16.1226 17.232C16.1226 16.6911 15.5094 16.2467 14.7549 16.2467C14.0141 16.2467 13.3871 16.698 13.3871 17.232C13.3871 17.4215 13.2355 17.5765 13.0426 17.5765C12.9513 17.5762 12.8638 17.5399 12.7993 17.4753C12.7347 17.4108 12.6983 17.3233 12.6981 17.232C12.6981 16.3087 13.6213 15.5576 14.7549 15.5576C15.8883 15.5576 16.8116 16.3086 16.8116 17.232C16.8116 17.7729 16.4946 18.2552 16.0054 18.5618C16.4946 18.8684 16.8116 19.3473 16.8116 19.8882Z" fill="#09BDC1"/>
</svg>
